<svg id="Livello_1" data-name="Livello 1" xmlns="http://www.w3.org/2000/svg" viewBox="0 0 5067.3 1096.13"><defs><style>.cls-1{fill:#14a9e1;}</style></defs><path class="cls-1" d="M3854.31,1378.4c-18.07-11.67-99.62-63.59-219-110.92-43.06-17.06-166.17-63.8-334.35-86.36a1584.85,1584.85,0,0,0-190.66-13.81c-103.88-1.1-182.59,8.53-209.8,12.14-67.27,8.92-114.89,15.23-177.52,36.09-28.49,9.49-104.13,36.66-186.72,94a715.87,715.87,0,0,0-84.62,68.84,1142.41,1142.41,0,0,1-117.74,93.18c-50.43,34.77-73.52,44.64-89.22,50.37a326.8,326.8,0,0,1-103.93,19.31c-77.52,1.7-136.32-24.84-163.73-39.46a615.87,615.87,0,0,1-78.18-60.44c-38.09-34.71-44.19-49.22-78.18-80.59-22.15-20.43-56.19-51.84-108.54-76.39-53.59-25.13-101.73-31.51-149-37.78a755.84,755.84,0,0,0-93.74-6c-44.31-.2-96.12-.67-146.38,14.87a515.88,515.88,0,0,0-48.94,18.46c-3.62,1.61-19,8.49-39.31,19.72a477.31,477.31,0,0,0-49.42,30.82c-41.4,29.79-62,56.78-127.79,103.22-53.72,37.92-93.33,65.31-154.53,80.59a371.29,371.29,0,0,1-111.6,10.07c-45.78,1.27-114.37-2.09-188.56-29.1-84.6-30.8-92.62-61.82-200.51-121.72-69.14-38.39-151.27-83-264-95.7-85.09-9.61-153.4,2.79-201.86,12-64.5,12.21-125.13,29.08-206.75,69-103.09,50.44-199.21,115.42-300.71,168.79-111.86,58.8-220,126.08-334.8,178.13v563.66c3473.88-5.79,5065.45,0,5065.46,0s1.83-618,1.83-618C3934.07,1429.9,3854.31,1378.4,3854.31,1378.4Z" transform="translate(905.77 -1167.22)"/></svg>